<svg width="3143" height="1863" viewBox="0 0 3143 1863" fill="none" xmlns="http://www.w3.org/2000/svg">
<path d="M35.8887 1756H8.54492L166.504 1406.88H197.021L355.713 1756H325.195L273.438 1638.81H116.943L124.512 1616.84H263.916L180.176 1426.9L35.8887 1756ZM613.32 1621.23V1406.88H638.955V1621.23C638.955 1698.06 677.204 1736.47 753.701 1736.47C830.199 1736.47 868.447 1698.06 868.447 1621.23V1406.88H894.082V1621.23C894.082 1712.71 847.288 1758.44 753.701 1758.44C660.114 1758.44 613.32 1712.71 613.32 1621.23ZM1182.21 1756V1406.88H1326.25C1389.4 1406.88 1420.98 1434.79 1420.98 1490.62C1420.98 1538.96 1386.72 1573.22 1318.19 1593.4L1436.11 1756H1400.96L1284.99 1594.13V1576.8C1356.6 1566.22 1392.41 1538.15 1392.41 1492.57C1392.41 1450.58 1368.97 1429.58 1322.1 1429.58H1207.84V1756H1182.21ZM1709.83 1580.46C1709.83 1684.47 1758.91 1736.47 1857.05 1736.47C1953.4 1736.47 2001.58 1684.47 2001.58 1580.46C2001.58 1477.76 1953.4 1426.41 1857.05 1426.41C1758.91 1426.41 1709.83 1477.76 1709.83 1580.46ZM1681.76 1581.93C1681.76 1463.6 1740.19 1404.44 1857.05 1404.44C1972.12 1404.44 2029.66 1463.6 2029.66 1581.93C2029.66 1699.6 1972.12 1758.44 1857.05 1758.44C1740.19 1758.44 1681.76 1699.6 1681.76 1581.93ZM2305.82 1756V1406.88H2449.86C2513.01 1406.88 2544.59 1434.79 2544.59 1490.62C2544.59 1538.96 2510.33 1573.22 2441.81 1593.4L2559.73 1756H2524.57L2408.6 1594.13V1576.8C2480.22 1566.22 2516.03 1538.15 2516.03 1492.57C2516.03 1450.58 2492.59 1429.58 2445.71 1429.58H2331.46V1756H2305.82ZM2814.4 1756H2787.06L2945.02 1406.88H2975.54L3134.23 1756H3103.71L3051.95 1638.81H2895.46L2903.03 1616.84H3042.43L2958.69 1426.9L2814.4 1756Z" fill="#306B8E"/>
<path d="M281.813 153.133C281.813 153.133 261.08 201 261 317.987C261 434.8 281.813 482.613 281.813 482.613C281.813 482.613 302.613 434.8 302.613 317.987C302.613 201 281.813 153.133 281.813 153.133Z" fill="url(#paint0_linear_205_3)"/>
<path d="M393.24 85.6C393.24 85.6 372.427 134.987 372.427 255.507C372.427 376.013 393.24 425.293 393.24 425.293C393.24 425.293 414.053 376.013 414.053 255.507C414.053 134.987 393.24 85.6 393.24 85.6Z" fill="url(#paint1_linear_205_3)"/>
<path d="M504.681 38.8536C504.681 38.8536 483.867 91.1202 483.867 218.787C483.867 346.494 504.641 398.72 504.641 398.72C504.641 398.72 525.414 346.494 525.414 218.787C525.507 91.1202 504.681 38.8536 504.681 38.8536Z" fill="url(#paint2_linear_205_3)"/>
<path d="M616.133 10.667C616.133 10.667 595.307 66.7602 595.307 204.147C595.307 341.414 616.08 397.547 616.08 397.547C616.08 397.547 636.893 341.414 636.893 204.147C636.893 66.7602 616.133 10.667 616.133 10.667Z" fill="url(#paint3_linear_205_3)"/>
<path d="M727.507 0C727.507 0 706.747 61.6399 706.747 212.68C706.747 363.653 727.507 425.293 727.507 425.293C727.507 425.293 748.294 363.653 748.294 212.68C748.334 61.6399 727.507 0 727.507 0Z" fill="url(#paint4_linear_205_3)"/>
<path d="M838.946 0.000396729C838.946 0.000396729 818.173 67.9471 818.133 234.387C818.133 400.747 838.946 468.694 838.946 468.694C838.946 468.694 859.733 400.747 859.733 234.387C859.759 67.9471 838.946 0.000396729 838.946 0.000396729Z" fill="url(#paint5_linear_205_3)"/>
<path d="M950.386 15.5604C950.386 15.5604 929.613 90.4002 929.613 273.667C929.613 456.92 950.386 531.813 950.386 531.813C950.386 531.813 971.213 456.92 971.213 273.667C971.253 90.4002 950.386 15.5604 950.386 15.5604Z" fill="url(#paint6_linear_205_3)"/>
<path d="M1058.33 38.8538C1058.33 38.8538 1037.51 120.854 1037.51 321.68C1037.51 522.4 1058.29 604.427 1058.29 604.427C1058.29 604.427 1079.15 522.4 1079.15 321.68C1079.15 120.854 1058.33 38.8538 1058.33 38.8538Z" fill="url(#paint7_linear_205_3)"/>
<path d="M1173.27 71.5203C1173.27 71.5203 1152.49 161.267 1152.45 380.6C1152.45 599.987 1173.27 689.587 1173.27 689.587C1173.27 689.587 1194.04 599.987 1194.04 380.6C1194.04 161.267 1173.27 71.5203 1173.27 71.5203Z" fill="url(#paint8_linear_205_3)"/>
<path d="M1284.69 108.894C1284.69 108.894 1263.84 204.36 1263.84 437.92C1263.84 671.467 1284.69 766.934 1284.69 766.934C1284.69 766.934 1305.39 671.467 1305.39 437.92C1305.47 204.36 1284.69 108.894 1284.69 108.894Z" fill="url(#paint9_linear_205_3)"/>
<path d="M1396.13 149.454C1396.13 149.454 1375.28 251.294 1375.28 500.574C1375.28 749.774 1396.13 851.654 1396.13 851.654C1396.13 851.654 1416.91 749.774 1416.91 500.574C1416.91 251.294 1396.13 149.454 1396.13 149.454Z" fill="url(#paint10_linear_205_3)"/>
<path d="M1507.56 191.12C1507.56 191.12 1486.75 298.054 1486.75 559.574C1486.75 821 1507.56 927.894 1507.56 927.894C1507.56 927.894 1528.33 821 1528.33 559.574C1528.39 298.054 1507.56 191.12 1507.56 191.12Z" fill="url(#paint11_linear_205_3)"/>
<path d="M1619.01 232.2C1619.01 232.2 1598.15 343.054 1598.15 614.187C1598.15 885.334 1618.96 996.107 1618.96 996.107C1618.96 996.107 1639.72 885.334 1639.72 614.187C1639.76 343.054 1619.01 232.2 1619.01 232.2Z" fill="url(#paint12_linear_205_3)"/>
<path d="M1730.4 269.04C1730.4 269.04 1709.64 382.494 1709.57 660.027C1709.57 937.574 1730.4 1051.07 1730.4 1051.07C1730.4 1051.07 1751.2 937.574 1751.2 660.027C1751.2 382.494 1730.4 269.04 1730.4 269.04Z" fill="url(#paint13_linear_205_3)"/>
<path d="M1841.8 300.867C1841.8 300.867 1821.01 415.134 1821.01 694.774C1821.01 974.334 1841.8 1088.61 1841.8 1088.61C1841.8 1088.61 1862.55 974.334 1862.55 694.774C1862.64 415.134 1841.8 300.867 1841.8 300.867Z" fill="url(#paint14_linear_205_3)"/>
<path d="M1953.31 325.467C1953.31 325.467 1932.45 438.587 1932.41 715.12C1932.41 991.867 1953.27 1104.89 1953.27 1104.89C1953.27 1104.89 1974.09 991.867 1974.09 715.12C1974.09 438.587 1953.31 325.467 1953.31 325.467Z" fill="url(#paint15_linear_205_3)"/>
<path d="M2064.65 339.427C2064.65 339.427 2043.89 449.187 2043.89 717.72C2043.89 986.187 2064.65 1095.97 2064.65 1095.97C2064.65 1095.97 2085.48 986.187 2085.48 717.72C2085.52 449.187 2064.65 339.427 2064.65 339.427Z" fill="url(#paint16_linear_205_3)"/>
<path d="M2176.09 341.787C2176.09 341.787 2155.33 445.654 2155.28 699.814C2155.28 953.92 2176.09 1057.76 2176.09 1057.76C2176.09 1057.76 2196.87 953.92 2196.87 699.814C2196.87 445.654 2176.09 341.787 2176.09 341.787Z" fill="url(#paint17_linear_205_3)"/>
<path d="M2287.57 329.08C2287.57 329.08 2266.77 424.547 2266.77 658.013C2266.77 891.48 2287.53 986.854 2287.53 986.854C2287.53 986.854 2308.29 891.48 2308.29 658.013C2308.29 424.547 2287.57 329.08 2287.57 329.08Z" fill="url(#paint18_linear_205_3)"/>
<path d="M2398.92 301.747C2398.92 301.747 2378.2 385.6 2378.12 590.654C2378.12 795.774 2398.92 879.614 2398.92 879.614C2398.92 879.614 2419.75 795.774 2419.75 590.654C2419.75 385.6 2398.92 301.747 2398.92 301.747Z" fill="url(#paint19_linear_205_3)"/>
<path d="M2510.45 254.947C2510.45 254.947 2489.64 324.2 2489.55 493.507C2489.55 662.894 2510.4 732.054 2510.4 732.054C2510.4 732.054 2531.21 662.894 2531.21 493.507C2531.21 324.2 2510.45 254.947 2510.45 254.947Z" fill="url(#paint20_linear_205_3)"/>
<path d="M2621.84 187.374C2621.84 187.374 2601.08 238.72 2601.01 364.32C2601.01 489.974 2621.84 541.28 2621.84 541.28C2621.84 541.28 2642.61 489.974 2642.61 364.32C2642.65 238.72 2621.84 187.374 2621.84 187.374Z" fill="url(#paint21_linear_205_3)"/>
<defs>
<linearGradient id="paint0_linear_205_3" x1="370.6" y1="390.387" x2="1735.17" y2="1504.77" gradientUnits="userSpaceOnUse">
<stop stop-color="#294E83"/>
<stop offset="0.33" stop-color="#368B99"/>
<stop offset="0.66" stop-color="#42BC74"/>
<stop offset="1" stop-color="#91D127"/>
</linearGradient>
<linearGradient id="paint1_linear_205_3" x1="445.747" y1="298.333" x2="1810.11" y2="1412.54" gradientUnits="userSpaceOnUse">
<stop stop-color="#294E83"/>
<stop offset="0.33" stop-color="#368B99"/>
<stop offset="0.66" stop-color="#42BC74"/>
<stop offset="1" stop-color="#91D127"/>
</linearGradient>
<linearGradient id="paint2_linear_205_3" x1="508.321" y1="221.774" x2="1872.44" y2="1335.79" gradientUnits="userSpaceOnUse">
<stop stop-color="#294E83"/>
<stop offset="0.33" stop-color="#368B99"/>
<stop offset="0.66" stop-color="#42BC74"/>
<stop offset="1" stop-color="#91D127"/>
</linearGradient>
<linearGradient id="paint3_linear_205_3" x1="560.093" y1="158.36" x2="1924.17" y2="1272.34" gradientUnits="userSpaceOnUse">
<stop stop-color="#294E83"/>
<stop offset="0.33" stop-color="#368B99"/>
<stop offset="0.66" stop-color="#42BC74"/>
<stop offset="1" stop-color="#91D127"/>
</linearGradient>
<linearGradient id="paint4_linear_205_3" x1="600.467" y1="108.893" x2="1964.61" y2="1222.92" gradientUnits="userSpaceOnUse">
<stop stop-color="#294E83"/>
<stop offset="0.33" stop-color="#368B99"/>
<stop offset="0.66" stop-color="#42BC74"/>
<stop offset="1" stop-color="#91D127"/>
</linearGradient>
<linearGradient id="paint5_linear_205_3" x1="634.44" y1="67.3337" x2="1998.47" y2="1181.26" gradientUnits="userSpaceOnUse">
<stop stop-color="#294E83"/>
<stop offset="0.33" stop-color="#368B99"/>
<stop offset="0.66" stop-color="#42BC74"/>
<stop offset="1" stop-color="#91D127"/>
</linearGradient>
<linearGradient id="paint6_linear_205_3" x1="659.747" y1="36.3337" x2="2024.01" y2="1150.46" gradientUnits="userSpaceOnUse">
<stop stop-color="#294E83"/>
<stop offset="0.33" stop-color="#368B99"/>
<stop offset="0.66" stop-color="#42BC74"/>
<stop offset="1" stop-color="#91D127"/>
</linearGradient>
<linearGradient id="paint7_linear_205_3" x1="679.453" y1="12.2539" x2="2043.55" y2="1126.25" gradientUnits="userSpaceOnUse">
<stop stop-color="#294E83"/>
<stop offset="0.33" stop-color="#368B99"/>
<stop offset="0.66" stop-color="#42BC74"/>
<stop offset="1" stop-color="#91D127"/>
</linearGradient>
<linearGradient id="paint8_linear_205_3" x1="696.533" y1="-8.77308" x2="2060.85" y2="1105.4" gradientUnits="userSpaceOnUse">
<stop stop-color="#294E83"/>
<stop offset="0.33" stop-color="#368B99"/>
<stop offset="0.66" stop-color="#42BC74"/>
<stop offset="1" stop-color="#91D127"/>
</linearGradient>
<linearGradient id="paint9_linear_205_3" x1="713.041" y1="-28.9328" x2="2077.35" y2="1085.23" gradientUnits="userSpaceOnUse">
<stop stop-color="#294E83"/>
<stop offset="0.33" stop-color="#368B99"/>
<stop offset="0.66" stop-color="#42BC74"/>
<stop offset="1" stop-color="#91D127"/>
</linearGradient>
<linearGradient id="paint10_linear_205_3" x1="726.949" y1="-45.9462" x2="2091.2" y2="1068.17" gradientUnits="userSpaceOnUse">
<stop stop-color="#294E83"/>
<stop offset="0.33" stop-color="#368B99"/>
<stop offset="0.66" stop-color="#42BC74"/>
<stop offset="1" stop-color="#91D127"/>
</linearGradient>
<linearGradient id="paint11_linear_205_3" x1="742.578" y1="-65.2263" x2="2106.94" y2="1048.98" gradientUnits="userSpaceOnUse">
<stop stop-color="#294E83"/>
<stop offset="0.33" stop-color="#368B99"/>
<stop offset="0.66" stop-color="#42BC74"/>
<stop offset="1" stop-color="#91D127"/>
</linearGradient>
<linearGradient id="paint12_linear_205_3" x1="760.55" y1="-86.8932" x2="2124.66" y2="1027.1" gradientUnits="userSpaceOnUse">
<stop stop-color="#294E83"/>
<stop offset="0.33" stop-color="#368B99"/>
<stop offset="0.66" stop-color="#42BC74"/>
<stop offset="1" stop-color="#91D127"/>
</linearGradient>
<linearGradient id="paint13_linear_205_3" x1="782.442" y1="-114.093" x2="2146.81" y2="1000.12" gradientUnits="userSpaceOnUse">
<stop stop-color="#294E83"/>
<stop offset="0.33" stop-color="#368B99"/>
<stop offset="0.66" stop-color="#42BC74"/>
<stop offset="1" stop-color="#91D127"/>
</linearGradient>
<linearGradient id="paint14_linear_205_3" x1="810.054" y1="-147.826" x2="2174.36" y2="966.33" gradientUnits="userSpaceOnUse">
<stop stop-color="#294E83"/>
<stop offset="0.33" stop-color="#368B99"/>
<stop offset="0.66" stop-color="#42BC74"/>
<stop offset="1" stop-color="#91D127"/>
</linearGradient>
<linearGradient id="paint15_linear_205_3" x1="844.696" y1="-190.16" x2="2208.98" y2="923.981" gradientUnits="userSpaceOnUse">
<stop stop-color="#294E83"/>
<stop offset="0.33" stop-color="#368B99"/>
<stop offset="0.66" stop-color="#42BC74"/>
<stop offset="1" stop-color="#91D127"/>
</linearGradient>
<linearGradient id="paint16_linear_205_3" x1="887.839" y1="-243.333" x2="2252.28" y2="870.939" gradientUnits="userSpaceOnUse">
<stop stop-color="#294E83"/>
<stop offset="0.33" stop-color="#368B99"/>
<stop offset="0.66" stop-color="#42BC74"/>
<stop offset="1" stop-color="#91D127"/>
</linearGradient>
<linearGradient id="paint17_linear_205_3" x1="941.366" y1="-308.573" x2="2305.63" y2="805.544" gradientUnits="userSpaceOnUse">
<stop stop-color="#294E83"/>
<stop offset="0.33" stop-color="#368B99"/>
<stop offset="0.66" stop-color="#42BC74"/>
<stop offset="1" stop-color="#91D127"/>
</linearGradient>
<linearGradient id="paint18_linear_205_3" x1="1006.57" y1="-388.147" x2="2370.69" y2="725.864" gradientUnits="userSpaceOnUse">
<stop stop-color="#294E83"/>
<stop offset="0.33" stop-color="#368B99"/>
<stop offset="0.66" stop-color="#42BC74"/>
<stop offset="1" stop-color="#91D127"/>
</linearGradient>
<linearGradient id="paint19_linear_205_3" x1="1083.82" y1="-483.28" x2="2448.21" y2="630.957" gradientUnits="userSpaceOnUse">
<stop stop-color="#294E83"/>
<stop offset="0.33" stop-color="#368B99"/>
<stop offset="0.66" stop-color="#42BC74"/>
<stop offset="1" stop-color="#91D127"/>
</linearGradient>
<linearGradient id="paint20_linear_205_3" x1="1176.37" y1="-595.946" x2="2540.43" y2="518.012" gradientUnits="userSpaceOnUse">
<stop stop-color="#294E83"/>
<stop offset="0.33" stop-color="#368B99"/>
<stop offset="0.66" stop-color="#42BC74"/>
<stop offset="1" stop-color="#91D127"/>
</linearGradient>
<linearGradient id="paint21_linear_205_3" x1="1283.87" y1="-728.332" x2="2648.31" y2="385.941" gradientUnits="userSpaceOnUse">
<stop stop-color="#294E83"/>
<stop offset="0.33" stop-color="#368B99"/>
<stop offset="0.66" stop-color="#42BC74"/>
<stop offset="1" stop-color="#91D127"/>
</linearGradient>
</defs>
</svg>
