<?xml version="1.0" encoding="utf-8"?>
<svg fill="#000000" xmlns="http://www.w3.org/2000/svg">
<symbol id="sap" viewBox="0 0 24 24"><g><rect fill="none" height="24" width="24"/></g><g><g><path d="M 0 6 L 0 18 L 13 18 L 24 6 Z M 4.199219 9 C 5.898438 9 6.449219 9.398438 6.449219 9.398438 C 6.449219 9.398438 6.148438 10.152344 6 10.550781 C 5.5 10.351563 3.5 10 3.5 10.75 C 3.5 11.050781 3.601563 11.25 5.101563 11.597656 C 5.699219 11.75 6.601563 12.050781 6.800781 12.949219 L 8.351563 9 L 10.097656 9 L 12 13.75 L 12 9 L 14.25 9 C 15.5 9 16.5 10 16.5 11.25 C 16.5 12.5 15.5 13.5 14.25 13.5 L 13.5 13.5 L 13.5 15 L 10.75 15 L 10.449219 14.097656 C 10.097656 14.25 9.699219 14.347656 9.25 14.347656 C 8.800781 14.347656 8.402344 14.25 8.050781 14.097656 L 7.75 15 L 6 15 L 6.25 14.402344 C 5.800781 14.75 5.097656 15 4.199219 15 C 2.550781 15 2 14.550781 2 14.550781 L 2.398438 13.25 C 3.351563 13.851563 5.050781 13.75 5.050781 13.25 C 5.050781 12.75 4.300781 12.699219 3.300781 12.402344 C 2.351563 12.101563 2 11.347656 2 10.699219 C 2 10.050781 2.5 9 4.199219 9 Z M 13.5 10.5 L 13.5 12 L 14.25 12 C 14.648438 12 15 11.648438 15 11.25 C 15 10.851563 14.648438 10.5 14.25 10.5 Z M 9.25 10.699219 L 8.5 12.847656 C 8.699219 13 8.949219 13.050781 9.25 13.050781 C 9.550781 13.050781 9.800781 13 10 12.847656 Z"/></g></g></g>
</symbol>
<symbol id="scouts" viewBox="0 0 21 24"><g><rect fill="none" height="21" width="24"/></g><g><g>
<path d="M11.5919 20.0901C11.5919 20.0901 11.0548 19.6699 11.2212 19.4886Z"/>
<path d="M9.71111 21.2759C9.20693 21.0814 8.52149 21.0304 8.14252 21.177L8.23972 21.3451L8.49181 21.7026L8.78677 21.6696C8.79499 21.6696 9.01577 21.6746 9.17893 21.7586C9.17893 21.7586 9.65673 21.2594 9.71111 21.2759Z"/>
<path d="M11.3217 0.0471963C11.3217 0.0471963 11.2228 0.111473 11.1833 0.15759C11.1536 0.207052 11.119 0.304256 11.0976 0.365235C11.0828 0.424542 11.0762 0.495413 11.0267 0.566237C11.0267 0.566237 10.9625 0.645329 10.8817 0.694743C11.2162 0.711231 11.549 0.74583 11.8769 0.790322H11.8687C11.9544 0.74583 12.0285 0.671709 12.0285 0.671709C12.0829 0.610729 12.0928 0.533311 12.1158 0.483848C12.1422 0.416322 12.1851 0.330636 12.2213 0.287768C12.2625 0.239979 12.3696 0.185643 12.3696 0.185643H12.3729C12.0285 0.124663 11.6808 0.0801713 11.3283 0.0406494L11.3217 0.0471963Z"/>
<path d="M12.6668 0.259525C12.6668 0.259525 12.5613 0.304016 12.5152 0.353431C12.4806 0.38803 12.4312 0.483609 12.4048 0.539618C12.3784 0.594003 12.3669 0.671422 12.3076 0.729104C12.3076 0.729104 12.2301 0.799975 12.1461 0.8362C12.4757 0.900477 12.8003 0.976271 13.1215 1.06196L13.11 1.05699C13.2039 1.02898 13.283 0.969676 13.283 0.969676C13.3506 0.911994 13.3687 0.84117 13.3983 0.790083C13.4297 0.735699 13.489 0.64509 13.5285 0.61049C13.5747 0.572593 13.6867 0.529726 13.6867 0.529726H13.69C13.3572 0.416035 13.0161 0.330349 12.6717 0.25293L12.6668 0.259525Z"/>
<path d="M13.9716 0.637939C13.9716 0.637939 13.8595 0.672587 13.8101 0.712109C13.7673 0.746708 13.7096 0.829097 13.675 0.886779C13.642 0.932896 13.6223 1.00707 13.5547 1.0581C13.5547 1.0581 13.4723 1.12405 13.3801 1.14876C13.7014 1.24596 14.0128 1.36625 14.3143 1.50302L14.311 1.49643C14.4 1.47664 14.4923 1.42226 14.4923 1.42226C14.5648 1.37777 14.5895 1.30527 14.6274 1.26078C14.6653 1.21299 14.7378 1.12898 14.7806 1.10097C14.8333 1.0647 14.947 1.04329 14.947 1.04329H14.9503C14.6356 0.886779 14.311 0.751631 13.9782 0.637939H13.9716Z"/>
<path d="M15.2193 1.18311C15.2193 1.18311 15.1007 1.20619 15.0463 1.23419C15.0002 1.26549 14.9326 1.34129 14.8914 1.394C14.8502 1.43357 14.8206 1.50444 14.7481 1.55056C14.7481 1.55056 14.6574 1.60165 14.5619 1.61484C14.87 1.75983 15.1633 1.90974 15.445 2.08934L15.4401 2.07619C15.5356 2.07619 15.6312 2.03662 15.6312 2.03662C15.707 1.9971 15.7433 1.92953 15.7861 1.88833C15.8339 1.83892 15.9064 1.77794 15.9558 1.75323C16.0135 1.72193 16.1338 1.71037 16.1338 1.71037V1.71696C15.8405 1.52418 15.5389 1.34129 15.2243 1.18311H15.2193Z"/>
<path d="M16.3846 1.89173C16.3846 1.89173 16.2627 1.89172 16.205 1.92465C16.1556 1.94936 16.0765 2.01364 16.0254 2.05483C15.9842 2.09435 15.943 2.16193 15.8689 2.1949C15.8689 2.1949 15.7684 2.2295 15.6744 2.2295C15.9595 2.41072 16.2298 2.6068 16.4901 2.81277L16.4835 2.80785C16.5774 2.81277 16.6795 2.78969 16.6795 2.78969C16.757 2.75839 16.8015 2.69908 16.8509 2.66611C16.902 2.62329 16.9893 2.56728 17.0404 2.54749C17.1014 2.53101 17.2167 2.5376 17.2167 2.5376C16.9564 2.30692 16.6762 2.09435 16.3896 1.88843L16.3846 1.89173Z"/>
<path d="M17.4425 2.7406C17.4425 2.7406 17.3239 2.72741 17.2629 2.74552C17.2102 2.76363 17.1245 2.82299 17.0718 2.85591C17.024 2.89548 16.9762 2.95312 16.8921 2.9729C16.8921 2.9729 16.7916 2.99761 16.6993 2.98772C16.9564 3.20358 17.1986 3.43426 17.4326 3.67154L17.426 3.65835C17.5166 3.68306 17.6204 3.67154 17.6204 3.67154C17.7061 3.65505 17.7555 3.60067 17.8099 3.57104C17.8676 3.54136 17.9549 3.48865 18.0093 3.48368C18.0735 3.46064 18.1889 3.48865 18.1889 3.48865V3.49357C17.9549 3.22996 17.7094 2.9828 17.4524 2.7406H17.4425Z"/>
<path d="M18.3818 3.72222C18.3818 3.72222 18.2665 3.69259 18.2022 3.71237C18.1528 3.7173 18.0605 3.75849 17.9996 3.78817C17.9435 3.81947 17.8925 3.87381 17.8084 3.8837C17.8084 3.8837 17.703 3.89359 17.6124 3.87381C17.8381 4.11768 18.0506 4.37636 18.25 4.64824L18.2434 4.63672C18.334 4.66472 18.4362 4.66472 18.4362 4.66472C18.5235 4.65813 18.5845 4.61693 18.6389 4.59385C18.6966 4.56915 18.7938 4.53622 18.8482 4.53125C18.9157 4.52465 19.0261 4.56255 19.0261 4.56255C18.8284 4.27586 18.6175 3.99409 18.3884 3.72222H18.3818Z"/>
<path d="M19.1901 4.82367C19.1901 4.82367 19.078 4.78577 19.0171 4.78577C18.961 4.78577 18.8622 4.82037 18.8012 4.83686C18.7419 4.86156 18.6809 4.89946 18.5985 4.90768C18.5985 4.90768 18.4914 4.89946 18.4041 4.86486C18.5985 5.13836 18.7715 5.4251 18.9297 5.71838V5.70519C19.0171 5.74801 19.1225 5.75957 19.1225 5.75957C19.2032 5.77109 19.2708 5.72827 19.3285 5.71838C19.3894 5.69859 19.4932 5.67718 19.5443 5.68378C19.6118 5.68378 19.7107 5.73487 19.7107 5.73487C19.5608 5.4251 19.3861 5.12354 19.1967 4.82367H19.1901Z"/>
<path d="M19.8398 6.01773C19.8398 6.01773 19.7377 5.96004 19.675 5.95512C19.6174 5.94853 19.5185 5.96501 19.4543 5.97653C19.3917 5.99464 19.3307 6.02924 19.245 6.01773C19.245 6.01773 19.1412 6.00124 19.0604 5.95512C19.2153 6.25333 19.3505 6.5598 19.4724 6.86465V6.86135C19.5498 6.91077 19.6503 6.93548 19.6503 6.93548C19.7376 6.95034 19.8036 6.92396 19.8629 6.91904C19.9271 6.91077 20.0326 6.90585 20.0804 6.91077C20.1463 6.92396 20.2451 6.99646 20.2451 6.99646C20.1331 6.66527 19.998 6.33572 19.8497 6.01773H19.8398Z"/>
<path d="M20.3324 7.28245C20.3324 7.28245 20.2352 7.21158 20.1742 7.19839C20.1232 7.1918 20.021 7.1918 19.9535 7.19839C19.8942 7.19839 19.8233 7.22807 19.7409 7.20499C19.7409 7.20499 19.647 7.17698 19.5662 7.11768C19.6799 7.43734 19.7788 7.75863 19.8596 8.08322V8.07003C19.9304 8.13593 20.0243 8.17053 20.0243 8.17053C20.1034 8.2002 20.1742 8.18539 20.2352 8.18539C20.2995 8.18539 20.4066 8.18869 20.4543 8.2035C20.5186 8.22491 20.6059 8.29908 20.6059 8.29908V8.30567C20.5384 7.95801 20.4477 7.62353 20.339 7.28245H20.3324Z"/>
<path d="M20.6574 8.60479C20.6574 8.60479 20.5701 8.5257 20.5124 8.50267C20.4613 8.48288 20.3575 8.47136 20.29 8.47136C20.2323 8.46477 20.1581 8.48288 20.0807 8.45488C20.0807 8.45488 19.9851 8.41201 19.9176 8.34778C19.9917 8.67074 20.0461 9.00192 20.0807 9.32813V9.32159C20.145 9.39241 20.2323 9.44842 20.2323 9.44842C20.3097 9.47972 20.3806 9.46988 20.4416 9.47972C20.5058 9.48961 20.6129 9.5061 20.6607 9.53411C20.7151 9.55881 20.7925 9.6478 20.7925 9.6478V9.65439C20.7662 9.3018 20.7217 8.95084 20.664 8.60479H20.6574Z"/>
<path d="M20.8024 9.95335C20.8024 9.95335 20.7283 9.86599 20.6739 9.83469C20.6294 9.80668 20.5223 9.78197 20.4613 9.77538C20.4003 9.76386 20.3262 9.77041 20.2553 9.72759C20.2553 9.72759 20.1647 9.6765 20.1038 9.60071C20.1334 9.93686 20.1466 10.268 20.1367 10.5992L20.1433 10.5976C20.1911 10.6701 20.2751 10.736 20.2751 10.736C20.346 10.7821 20.4234 10.7821 20.4778 10.7969C20.5387 10.8184 20.6376 10.8464 20.6838 10.8744C20.7348 10.9123 20.8024 11.0112 20.8024 11.0112C20.8255 10.6684 20.8255 10.3142 20.809 9.95827L20.8024 9.95335Z"/>
<path d="M20.7701 11.3142C20.7701 11.3142 20.7124 11.212 20.6613 11.1758C20.6152 11.1445 20.5196 11.1115 20.4587 11.0852C20.3961 11.072 20.3252 11.072 20.256 11.016C20.256 11.016 20.1753 10.9534 20.1292 10.8677C20.111 11.212 20.0781 11.5433 20.0237 11.8646L20.0336 11.858C20.0748 11.9486 20.1456 12.0195 20.1456 12.0195C20.2099 12.0771 20.284 12.0804 20.3384 12.1051C20.3994 12.1348 20.4966 12.176 20.5378 12.2122C20.5806 12.2501 20.6383 12.3605 20.6383 12.3605V12.3654C20.6992 12.0195 20.747 11.6718 20.78 11.3175L20.7701 11.3142Z"/>
<path d="M20.5675 12.6567C20.5675 12.6567 20.5197 12.5496 20.4703 12.5084C20.4291 12.4721 20.3385 12.4227 20.2808 12.393C20.2264 12.37 20.149 12.3601 20.0913 12.3024C20.0913 12.3024 20.0205 12.2233 19.9826 12.136C19.9199 12.4639 19.8474 12.7918 19.7568 13.1114L19.7601 13.1081C19.7881 13.1938 19.8491 13.2778 19.8491 13.2778C19.9051 13.3421 19.9826 13.3586 20.0336 13.3866C20.0913 13.4261 20.1754 13.4772 20.21 13.5167C20.2561 13.5678 20.2907 13.6766 20.2907 13.6766C20.3995 13.3487 20.4967 13.0142 20.5708 12.6665L20.5675 12.6567Z"/>
<path d="M20.2103 13.976C20.2103 13.976 20.1806 13.859 20.1493 13.8047C20.1164 13.7635 20.0373 13.7009 19.9813 13.6597C19.9368 13.6251 19.866 13.5971 19.8182 13.5262C19.8182 13.5262 19.7638 13.4422 19.7473 13.3483C19.6188 13.6597 19.4771 13.9628 19.3222 14.2545L19.3321 14.2495C19.3419 14.3418 19.3897 14.4325 19.3897 14.4325C19.4276 14.5132 19.4952 14.5429 19.538 14.5808C19.5891 14.622 19.6633 14.6994 19.6896 14.7488C19.7209 14.8015 19.7374 14.9185 19.7374 14.9185C19.9104 14.6187 20.0719 14.3039 20.2136 13.9842L20.2103 13.976Z"/>
<path d="M19.6372 15.2054C19.6372 15.2054 19.6141 15.0951 19.5828 15.0357C19.5564 14.9929 19.479 14.9188 19.4279 14.8776C19.3834 14.8397 19.3126 14.8133 19.2698 14.7359C19.2698 14.7359 19.222 14.6486 19.2088 14.553C19.0605 14.8611 18.904 15.1544 18.7326 15.4361L18.7392 15.4312C18.7458 15.5235 18.7837 15.6174 18.7837 15.6174C18.82 15.6948 18.8875 15.7294 18.9287 15.7789C18.9781 15.8234 19.0457 15.9008 19.0704 15.9453C19.1001 15.9997 19.1067 16.1183 19.1067 16.1183V16.1265C19.2961 15.83 19.4724 15.5235 19.6372 15.212V15.2054Z"/>
<path d="M18.9259 16.3718C18.9259 16.3718 18.9259 16.2548 18.8962 16.1955C18.8748 16.1477 18.8072 16.0637 18.7644 16.0159C18.7232 15.9714 18.6589 15.9351 18.626 15.8511C18.626 15.8511 18.5914 15.7572 18.5881 15.6649C18.4052 15.9467 18.2141 16.2153 18.0032 16.4756L18.0114 16.469C18.0048 16.5646 18.0345 16.6634 18.0345 16.6634C18.0608 16.7458 18.1185 16.7936 18.1531 16.843C18.196 16.8875 18.2536 16.9765 18.2701 17.0325C18.2915 17.0869 18.2816 17.2055 18.2816 17.2055C18.5106 16.9435 18.7265 16.6634 18.9291 16.3751L18.9259 16.3718Z"/>
<path d="M18.08 17.4292C18.08 17.4292 18.0899 17.3106 18.0701 17.2513C18.0536 17.2019 17.9992 17.1112 17.9614 17.0585C17.9218 17.014 17.8674 16.963 17.8411 16.8789C17.8411 16.8789 17.823 16.7834 17.8295 16.6829C17.6137 16.9432 17.3847 17.1887 17.1441 17.4128H17.154C17.1375 17.5067 17.1474 17.6056 17.1474 17.6056C17.1655 17.6896 17.2182 17.7407 17.2462 17.7951C17.2792 17.8544 17.327 17.9401 17.3402 18.001C17.3533 18.057 17.327 18.179 17.327 18.179C17.5906 17.9401 17.8378 17.6929 18.08 17.4358V17.4292Z"/>
<path d="M17.092 18.3652C17.092 18.3652 17.1216 18.2548 17.1117 18.1856C17.1018 18.1345 17.059 18.0422 17.0277 17.9895C17.0013 17.9368 16.947 17.8758 16.9305 17.7951C16.9305 17.7951 16.9239 17.6946 16.947 17.599C16.6998 17.8215 16.4411 18.034 16.1709 18.2367L16.1841 18.2268C16.1478 18.3174 16.1478 18.4228 16.1478 18.4228C16.1577 18.5134 16.1989 18.5711 16.2252 18.6222C16.25 18.6832 16.2813 18.7837 16.2846 18.8348C16.2895 18.899 16.2549 19.0127 16.2549 19.0127C16.5383 18.8167 16.8217 18.6041 17.092 18.3751V18.3652Z"/>
<path d="M15.9948 19.1696C15.9948 19.1696 16.036 19.0642 16.0311 19.0015C16.0294 18.9455 16.0031 18.845 15.98 18.784C15.9586 18.7297 15.9141 18.6687 15.9108 18.5847C15.9108 18.5847 15.9141 18.4759 15.952 18.387C15.6752 18.5847 15.3885 18.7577 15.0969 18.9159H15.11C15.0655 19.0015 15.0507 19.1054 15.0507 19.1054C15.0474 19.1894 15.0837 19.2537 15.0969 19.3146C15.115 19.3756 15.1347 19.4761 15.1347 19.5305C15.1298 19.5947 15.0771 19.7002 15.0771 19.7002C15.3885 19.5404 15.6933 19.3707 15.9915 19.1762L15.9948 19.1696Z"/>
<path d="M14.8012 19.8229C14.8012 19.8229 14.8556 19.7224 14.8622 19.6565C14.8688 19.6037 14.8507 19.5016 14.8358 19.4357C14.8243 19.3796 14.7848 19.3154 14.7946 19.2314C14.7946 19.2314 14.8111 19.1309 14.8589 19.0452C14.5606 19.2017 14.2575 19.3335 13.9444 19.4571H13.956C13.9049 19.5329 13.8687 19.6334 13.8687 19.6334C13.8439 19.729 13.8489 19.7768 13.8571 19.8476C13.8654 19.9102 13.839 20.019 13.8308 20.0684C13.8209 20.1343 13.7632 20.248 13.7632 20.248C14.0927 20.1343 14.4766 19.9827 14.7979 19.8361L14.8012 19.8229Z"/>
<path d="M13.4541 20.3121C13.4541 20.3121 13.4821 20.2495 13.4986 20.1819C13.5101 20.1275 13.5283 20.06 13.5217 19.9941C13.5184 19.9348 13.4739 19.887 13.4986 19.803C13.4986 19.803 13.5596 19.6201 13.6172 19.5459C13.2976 19.653 12.8362 19.8359 12.5429 19.9941C12.4721 20.032 12.4062 20.06 12.4062 20.06C12.3749 20.1407 12.3617 20.205 12.3617 20.2643C12.3567 20.3285 12.3485 20.4241 12.3485 20.4884C12.3485 20.6268 12.2167 20.8295 12.2167 20.8295C12.561 20.7652 12.9944 20.5691 13.2861 20.3994L13.4541 20.3121Z"/>
<path d="M6.84518 20.1646C6.84518 20.1646 6.95558 20.1349 7.00337 20.0954C7.04786 20.0591 7.11046 19.9784 7.14506 19.9224C7.17804 19.868 7.19615 19.8021 7.26205 19.7477C7.26205 19.7477 7.34774 19.6818 7.44002 19.6587C7.11868 19.5532 6.80236 19.4379 6.50081 19.3044L6.5107 19.311C6.41512 19.3292 6.32452 19.3786 6.32452 19.3786C6.25532 19.4313 6.22731 19.5022 6.18941 19.5417C6.14984 19.5911 6.08394 19.6768 6.03615 19.7081C5.98344 19.7427 5.86975 19.7642 5.86975 19.7642C6.17952 19.9141 6.50741 20.0525 6.83859 20.1695L6.84518 20.1646Z"/>
<path d="M5.5973 19.6169C5.5973 19.6169 5.71591 19.6004 5.7703 19.5724C5.81479 19.5411 5.88561 19.462 5.92681 19.4126C5.96471 19.3731 5.99601 19.3022 6.0685 19.2528C6.0685 19.2528 6.15916 19.205 6.25469 19.1918C5.94822 19.0501 5.65331 18.887 5.36824 18.7173L5.37646 18.7305C5.28093 18.7305 5.18535 18.77 5.18535 18.77C5.10956 18.8046 5.07166 18.8771 5.03047 18.9167C4.98268 18.9628 4.90688 19.0287 4.8591 19.0501C4.79979 19.0897 4.6828 19.0897 4.6828 19.0897C4.97279 19.2841 5.28093 19.4587 5.59233 19.6219L5.5973 19.6169Z"/>
<path d="M4.43536 18.9121C4.43536 18.9121 4.55235 18.9121 4.61003 18.8824C4.65945 18.8626 4.74016 18.7951 4.78963 18.7539C4.83412 18.7127 4.87201 18.6468 4.94781 18.6122C4.94781 18.6122 5.04664 18.5743 5.14222 18.5743C4.85715 18.393 4.58528 18.1936 4.32659 17.9943L4.33156 17.9976C4.23598 17.9943 4.13548 18.019 4.13548 18.019C4.05639 18.047 4.0119 18.1063 3.96411 18.1393C3.91302 18.1821 3.82734 18.2431 3.773 18.2579C3.71532 18.2777 3.60163 18.2678 3.60163 18.2678H3.59503C3.86361 18.5001 4.13548 18.7127 4.42547 18.917L4.43536 18.9121Z"/>
<path d="M3.3734 18.0666C3.3734 18.0666 3.49364 18.0798 3.55462 18.0534C3.60408 18.0403 3.69302 17.9826 3.7441 17.9496C3.79519 17.9101 3.84298 17.854 3.9204 17.8293C3.9204 17.8293 4.0242 17.8063 4.11815 17.8194C3.86276 17.6003 3.6189 17.368 3.38822 17.1373L3.39314 17.1423C3.29761 17.1242 3.19543 17.1373 3.19543 17.1373C3.11137 17.1522 3.06033 17.2082 3.00925 17.2362C2.95156 17.2642 2.85928 17.3103 2.80657 17.3268C2.74559 17.3367 2.6286 17.3103 2.6286 17.3103C2.85928 17.5772 3.10482 17.8244 3.36513 18.0666H3.3734Z"/>
<path d="M2.43371 17.0776C2.43371 17.0776 2.54908 17.1073 2.61331 17.0908C2.66607 17.0875 2.75997 17.043 2.81766 17.0134C2.87199 16.987 2.92308 16.931 3.01044 16.9178C3.01044 16.9178 3.11256 16.9063 3.20814 16.931C2.97746 16.6822 2.7649 16.4219 2.57211 16.1582V16.1697C2.48313 16.1351 2.37771 16.1351 2.37771 16.1351C2.29532 16.1417 2.23601 16.1862 2.17995 16.2126C2.11735 16.2356 2.02014 16.2703 1.96743 16.2703C1.90316 16.2768 1.79439 16.2356 1.79439 16.2356H1.79114C1.98884 16.524 2.19974 16.8041 2.42382 17.0776H2.43371Z"/>
<path d="M1.63319 15.9844C1.63319 15.9844 1.74196 16.0256 1.80624 16.0256C1.85565 16.0173 1.95783 15.9877 2.02043 15.9679C2.07482 15.9481 2.13575 15.9003 2.22144 15.9003C2.22144 15.9003 2.32361 15.9003 2.41259 15.9382C2.22144 15.6581 2.04514 15.3764 1.88533 15.0897V15.0996C1.80127 15.0551 1.69747 15.0419 1.69747 15.0419C1.61676 15.0353 1.55248 15.0683 1.49317 15.0897C1.42727 15.1078 1.32347 15.1259 1.27401 15.1259C1.20978 15.1193 1.10431 15.0633 1.10431 15.0633C1.25919 15.3764 1.43386 15.6828 1.62497 15.9844H1.63319Z"/>
<path d="M0.977456 14.7888C0.977456 14.7888 1.07958 14.8481 1.14386 14.8514C1.19824 14.8613 1.30037 14.835 1.36465 14.8218C1.42563 14.8135 1.48656 14.7773 1.57392 14.7806C1.57392 14.7806 1.67442 14.8036 1.7601 14.8481C1.60355 14.5482 1.46682 14.2434 1.34816 13.9336V13.9468C1.26907 13.8941 1.16527 13.8644 1.16527 13.8644C1.08455 13.848 1.01535 13.876 0.954374 13.8826C0.891769 13.8941 0.787971 13.9023 0.735211 13.8875C0.670982 13.876 0.57373 13.8134 0.57373 13.8134C0.685797 14.1412 0.820897 14.4659 0.972486 14.7888H0.977456Z"/>
<path d="M0.482469 13.5247C0.482469 13.5247 0.579673 13.5857 0.642277 13.6055C0.694989 13.617 0.797163 13.612 0.86144 13.6055C0.925669 13.5989 0.99157 13.5758 1.07726 13.5923C1.07726 13.5923 1.17451 13.6252 1.2503 13.6829C1.13661 13.3665 1.04266 13.0386 0.958643 12.7239V12.7354C0.889444 12.6679 0.793865 12.6267 0.793865 12.6267C0.711476 12.5987 0.642277 12.6234 0.579672 12.6234C0.515396 12.6234 0.411597 12.6201 0.36051 12.5987C0.301203 12.5822 0.212219 12.4982 0.212219 12.4982C0.283091 12.8409 0.372075 13.1836 0.477498 13.5148L0.482469 13.5247Z"/>
<path d="M0.163179 12.1999C0.163179 12.1999 0.248866 12.284 0.306548 12.3071C0.360932 12.3235 0.461433 12.3318 0.527335 12.3367C0.585017 12.3367 0.660811 12.3186 0.739902 12.3483C0.739902 12.3483 0.833809 12.3944 0.901383 12.4587C0.830511 12.1307 0.776127 11.8012 0.739902 11.4701L0.734932 11.4849C0.675625 11.414 0.585017 11.3596 0.585017 11.3596C0.510847 11.3185 0.436726 11.3316 0.374121 11.325C0.309844 11.3152 0.209344 11.2954 0.159882 11.274C0.102248 11.2443 0.0247803 11.1537 0.0247803 11.1537C0.0511601 11.5014 0.0956526 11.8474 0.153287 12.1934L0.163179 12.1999Z"/>
<path d="M0.0161107 10.8537C0.0161107 10.8537 0.0902801 10.9411 0.144665 10.9691C0.192454 10.9954 0.296253 11.0169 0.360482 11.0268C0.418164 11.0432 0.492333 11.0268 0.569752 11.0696C0.569752 11.0696 0.653814 11.1306 0.711448 11.2014C0.685116 10.8669 0.675224 10.5374 0.685116 10.1996L0.676848 10.2095C0.625761 10.1288 0.545045 10.0678 0.545045 10.0678C0.475846 10.0167 0.398379 10.0233 0.342369 10.0052C0.278092 9.99036 0.179264 9.95246 0.136397 9.92446C0.0803875 9.88818 0.0161107 9.7926 0.0161107 9.7926C-0.000328909 10.1386 -0.00692388 10.4846 0.0095157 10.8405L0.0161107 10.8537Z"/>
<path d="M0.0440706 9.49015C0.0440706 9.49015 0.106675 9.59065 0.159387 9.63185C0.202254 9.66152 0.301131 9.69283 0.362062 9.71256C0.421417 9.72905 0.493913 9.73402 0.56144 9.78343C0.56144 9.78343 0.642204 9.85101 0.691618 9.93006C0.704808 9.59558 0.741032 9.26439 0.792119 8.93651L0.785524 8.94311C0.746002 8.85909 0.670209 8.78492 0.670209 8.78492C0.605932 8.72724 0.536733 8.71735 0.475753 8.69431C0.421417 8.66961 0.325838 8.63171 0.282971 8.58884C0.236854 8.54932 0.182469 8.44055 0.182469 8.44055H0.187439C0.118192 8.78492 0.0720752 9.12929 0.0374756 9.48356L0.0440706 9.49015Z"/>
<path d="M0.254055 8.14729C0.254055 8.14729 0.301796 8.25272 0.347961 8.29558C0.389155 8.33511 0.476467 8.3829 0.539071 8.4109C0.591831 8.43398 0.665953 8.44717 0.726932 8.50481C0.726932 8.50481 0.797756 8.58227 0.835653 8.66958C0.898305 8.3351 0.972426 8.01214 1.06303 7.69415L1.05811 7.70075C1.03011 7.61344 0.964207 7.52937 0.964207 7.52937C0.91312 7.46514 0.838951 7.44866 0.787911 7.41736C0.733527 7.38108 0.64287 7.3234 0.606646 7.2888C0.565451 7.23446 0.530852 7.13062 0.530852 7.13062V7.12402C0.418785 7.45855 0.326551 7.79465 0.249084 8.1407L0.254055 8.14729Z"/>
<path d="M0.634622 6.84307C0.634622 6.84307 0.669221 6.95347 0.710416 7.00785C0.741718 7.049 0.829029 7.10835 0.883414 7.14128C0.934501 7.16928 1.00537 7.19566 1.05808 7.25994C1.05808 7.25994 1.11906 7.34066 1.14377 7.43624C1.24757 7.11165 1.36618 6.80021 1.50133 6.49373L1.49144 6.50529C1.47333 6.41301 1.42057 6.32565 1.42057 6.32565C1.37775 6.25153 1.30688 6.22353 1.25909 6.18893C1.208 6.14606 1.12566 6.07524 1.09761 6.03567C1.06301 5.98458 1.0416 5.86597 1.0416 5.86597C0.888384 6.17736 0.753236 6.502 0.6297 6.8381L0.634622 6.84307Z"/>
<path d="M1.18439 5.60089C1.18439 5.60089 1.20417 5.71129 1.2404 5.77226C1.26515 5.81346 1.34257 5.88266 1.39366 5.92385C1.43815 5.96505 1.50405 5.99473 1.55184 6.06555C1.55184 6.06555 1.59796 6.15783 1.61277 6.25341C1.75614 5.94856 1.9127 5.65365 2.08402 5.37021L2.07743 5.37681C2.07413 5.2829 2.03131 5.18073 2.03131 5.18073C1.99504 5.10661 1.93244 5.07033 1.88962 5.02914C1.84512 4.98302 1.77263 4.90723 1.74792 4.86111C1.72154 4.80013 1.71332 4.68152 1.71332 4.68152H1.71662C1.52546 4.96821 1.34587 5.27798 1.18439 5.58608V5.60089Z"/>
<path d="M1.88965 4.43713C1.88965 4.43713 1.89132 4.55249 1.91765 4.61013C1.94241 4.65959 2.00993 4.74198 2.05443 4.79139C2.0907 4.83096 2.1566 4.86886 2.19282 4.94795C2.19282 4.94795 2.2291 5.04845 2.23072 5.13906C2.40869 4.86227 2.60807 4.58872 2.81404 4.33003H2.80415C2.81237 4.23446 2.78766 4.13563 2.78766 4.13563C2.75798 4.05816 2.70197 4.01037 2.66408 3.96425C2.62288 3.91317 2.5652 3.83245 2.54876 3.77477C2.52401 3.71709 2.5372 3.6001 2.5372 3.6001C2.30981 3.85878 2.08903 4.13563 1.88965 4.43054V4.43713Z"/>
<path d="M2.74269 3.37524C2.74269 3.37524 2.72621 3.49386 2.74762 3.55154C2.76248 3.60592 2.81849 3.68664 2.85639 3.74762C2.89261 3.79374 2.95196 3.84153 2.975 3.92229C2.975 3.92229 2.99641 4.02279 2.98656 4.11837C3.20238 3.85801 3.43636 3.61744 3.67034 3.38843L3.66212 3.39665C3.68353 3.30107 3.66871 3.19565 3.66871 3.19565C3.65385 3.11159 3.60114 3.06385 3.57146 3.01109C3.53686 2.95341 3.48907 2.85788 3.48085 2.80512C3.46933 2.74748 3.48907 2.63049 3.48907 2.63049C3.23039 2.85788 2.98159 3.10829 2.74269 3.36535V3.37524Z"/>
<path d="M3.72679 2.43694C3.72679 2.43694 3.69878 2.55063 3.7103 2.60994C3.72019 2.66762 3.76306 2.7566 3.79269 2.81591C3.81744 2.87029 3.87178 2.92797 3.88497 3.01199C3.88497 3.01199 3.89486 3.11086 3.86848 3.20477C4.12224 2.97572 4.38093 2.76482 4.64788 2.57041H4.63631C4.66762 2.48305 4.66762 2.37596 4.66762 2.37596C4.66599 2.29524 4.6149 2.23594 4.59512 2.18155C4.57209 2.12057 4.53749 2.02337 4.53419 1.97228C4.52759 1.90471 4.56712 1.79431 4.56712 1.79431C4.28043 1.99206 3.99374 2.19804 3.72679 2.42872V2.43694Z"/>
<path d="M4.82479 1.63453C4.82479 1.63453 4.78029 1.73995 4.78197 1.80585C4.78526 1.86024 4.81489 1.95911 4.8396 2.02339C4.85776 2.07773 4.90388 2.13708 4.90555 2.22439C4.90555 2.22439 4.90058 2.32327 4.86928 2.41388C5.14278 2.22439 5.43114 2.04642 5.7195 1.88824H5.70961C5.7508 1.80255 5.76562 1.70205 5.76562 1.70205C5.77059 1.61804 5.73269 1.55046 5.7195 1.49608C5.70301 1.42855 5.68323 1.32968 5.68323 1.27696C5.68653 1.21269 5.74091 1.10559 5.74091 1.10559C5.43114 1.2654 5.12304 1.43515 4.82479 1.62463V1.63453Z"/>
<path d="M6.02018 0.974035C6.02018 0.974035 5.96249 1.08276 5.95423 1.14703C5.94768 1.20142 5.96909 1.29862 5.97898 1.36615C5.99542 1.42221 6.03002 1.48811 6.02018 1.57542C6.02018 1.57542 6.00699 1.67592 5.96082 1.75998C6.25578 1.60672 6.56225 1.4634 6.87202 1.34641H6.86213C6.91652 1.27062 6.94122 1.17007 6.94122 1.17007C6.95933 1.08935 6.92803 1.01518 6.92311 0.957547C6.91652 0.89327 6.90662 0.789472 6.91652 0.735087C6.92803 0.670811 6.99231 0.576904 6.99231 0.576904H6.99561C6.66772 0.687298 6.33817 0.825696 6.02018 0.970737V0.974035Z"/>
<path d="M7.28483 0.488877C7.28483 0.488877 7.21563 0.582784 7.20412 0.64706C7.18925 0.69485 7.19422 0.801947 7.20082 0.866176C7.20412 0.927156 7.23375 0.99473 7.21234 1.07712C7.21234 1.07712 7.18103 1.17762 7.12335 1.25174C7.44139 1.14302 7.76268 1.04252 8.08727 0.960131H8.07408C8.13835 0.895854 8.17625 0.792054 8.17625 0.792054C8.20593 0.717884 8.18777 0.640465 8.18777 0.582784C8.18777 0.518507 8.19107 0.411411 8.20923 0.366919C8.23064 0.305987 8.30643 0.218628 8.30643 0.218628C7.96536 0.2895 7.62591 0.370216 7.2898 0.482282L7.28483 0.488877Z"/>
<path d="M8.60707 0.165948C8.60707 0.165948 8.52798 0.253307 8.5049 0.312614C8.48679 0.358731 8.47852 0.465827 8.4736 0.528431C8.47197 0.58941 8.49008 0.666877 8.45711 0.742671C8.45711 0.742671 8.41592 0.834905 8.34839 0.899182C8.6779 0.834905 9.00745 0.777271 9.33701 0.742671L9.32712 0.734404C9.40291 0.675097 9.45233 0.589411 9.45233 0.589411C9.49022 0.511992 9.48033 0.436198 9.48693 0.378516C9.49849 0.312614 9.5166 0.213738 9.53969 0.165948C9.56931 0.105017 9.65663 0.0291748 9.65663 0.0291748C9.31063 0.0522571 8.95966 0.0951242 8.61367 0.156056L8.60707 0.165948Z"/>
<path d="M9.9601 0.0170387C9.9601 0.0170387 9.86782 0.0944574 9.84144 0.148842C9.81013 0.194959 9.79202 0.30043 9.77721 0.366332C9.76894 0.415746 9.77721 0.494837 9.73434 0.572304C9.73434 0.572304 9.68 0.659615 9.60583 0.717297C9.94199 0.684323 10.2765 0.67443 10.6093 0.681025H10.6011C10.6801 0.629986 10.7411 0.545924 10.7411 0.545924C10.7889 0.4751 10.7889 0.397634 10.8053 0.339952C10.8218 0.282318 10.8531 0.183442 10.8828 0.134027C10.9174 0.0829403 11.0179 0.0170387 11.0179 0.0170387C10.6686 -0.00112134 10.316 -0.00771648 9.96502 0.0120684L9.9601 0.0170387Z"/>
<path d="M7.43494 20.1284C7.43494 20.1284 7.54533 20.6853 7.91279 20.7068C7.98199 20.4761 8.29835 20.2058 8.49109 20.0674L8.56363 19.99C8.50098 19.5171 8.71025 19.265 8.71025 19.265L8.50428 19.3177C8.05778 19.4364 7.65735 19.7429 7.42834 20.1284H7.43494Z"/>
<path d="M8.10263 21.9826C8.17675 21.9562 8.24762 21.892 8.274 21.864H8.28059C8.02186 21.6646 7.85713 21.3532 7.86535 21.0006C7.39907 20.9478 7.2903 20.4189 7.2903 20.4189H7.29197C7.2277 20.5952 7.1898 20.788 7.18483 20.989C7.17661 21.3532 7.28371 21.6959 7.46989 21.976H7.47486C7.47486 21.976 7.83897 22.0584 8.10263 21.9826Z"/>
<path d="M9.11633 22.0765C9.05205 22.0897 8.98453 22.093 8.91203 22.0897C8.78348 22.0897 8.65664 22.06 8.54295 22.0188H8.53636C8.43581 22.3352 7.70917 22.2643 7.70917 22.2643C7.9679 22.5181 8.31557 22.7042 8.69287 22.7537L8.68627 22.7471C8.68627 22.7471 9.09822 22.6663 9.11303 22.0715L9.11633 22.0765Z"/>
<path d="M9.33667 22.034C9.33667 22.034 9.34494 22.0291 9.34824 22.0291L9.65964 22.1015C10.2413 22.2465 10.3484 22.3339 10.3484 22.3339C10.3484 22.3339 9.68434 22.96 9.10767 22.8067C9.10767 22.8067 9.54265 22.4904 9.34824 22.0291"/>
<path d="M11.2909 21.8897C10.8477 21.5322 10.4176 21.4745 10.093 21.3707L9.45209 21.8189L10.2199 22.0759C10.4506 22.1369 10.5132 22.2473 10.8048 22.4335C10.8048 22.4335 11.4837 22.0479 11.2909 21.8897Z"/>
<path d="M12.607 22.5348C12.3533 22.7902 11.9446 22.8067 11.9446 22.8067C11.6497 22.81 11.3778 22.7902 11.045 22.5809C11.045 22.5809 11.6101 22.2052 11.5838 22.0125C11.7139 22.0487 12.1061 22.1097 12.2116 22.0438C12.2116 22.0438 12.3483 22.3783 12.607 22.5348Z"/>
<path d="M11.592 20.0909C11.8853 19.8471 12.1423 19.7532 12.3384 19.8125C13.0172 19.5192 13.1309 19.4961 13.1309 19.4961C12.8624 19.2028 12.5888 19.1352 12.1242 19.1517C11.9149 19.1583 11.2772 19.394 11.1784 19.5439"/>
<path d="M11.378 20.2284C11.378 20.2284 10.9314 19.8594 11.0188 19.5891C10.5178 20.0324 10.3168 20.2498 9.90657 20.2498C9.8044 20.2647 9.89506 20.2498 9.89506 20.2498C9.8423 20.319 9.81099 20.3998 9.79288 20.4624C9.77147 20.5184 9.75002 20.586 9.75002 20.647C9.74342 20.8167 9.75661 20.8711 9.75661 20.8711C10.2081 20.8941 10.1784 20.9106 10.5887 20.8002C10.5887 20.8002 10.8721 20.6947 11.149 20.4278C11.1951 20.3833 11.3285 20.2795 11.378 20.2284Z"/>
<path d="M9.54534 20.8945C9.54534 20.8945 9.49588 20.8945 9.55356 20.6276C9.56838 20.5485 9.59476 20.499 9.61784 20.4414C9.63925 20.3821 9.66893 20.3063 9.72494 20.242L9.59806 20.247C9.2619 20.2173 9.08728 20.1893 8.7627 20.1283C8.66052 20.1613 8.51056 20.2536 8.48585 20.3129C8.45622 20.3705 8.39687 20.3854 8.36227 20.4282C8.33264 20.4595 8.24036 20.5699 8.24036 20.5699C8.57976 20.7248 9.20427 20.9076 9.54534 20.8945Z"/>
<path d="M9.13787 19.3294C9.19388 19.2404 9.30102 19.2718 9.38007 19.2635C9.78542 19.219 10.3539 19.4893 10.4676 19.7479L10.2863 19.8896C10.1348 20.0198 9.91559 20.0478 9.91559 20.0478L9.8118 20.0066C9.68491 19.9522 9.49873 19.9358 9.35206 19.9292C9.20707 19.9292 9.04559 19.8946 8.922 19.9407C8.77209 19.7809 9.13787 19.3294 9.13787 19.3294Z"/>
<path d="M7.48069 22.3055C7.33407 22.4093 7.24179 22.4933 7.24179 22.4933L7.0968 22.64L7.10009 22.6351C7.10009 22.6351 6.63376 22.0814 6.26636 22.4011L6.26306 22.4044C6.41795 22.2132 6.55635 22.0287 6.63376 21.9529C6.71453 21.8688 6.81011 21.7898 6.95343 21.7123L6.91553 21.7337C6.96662 21.7123 7.01933 21.6942 7.06712 21.6744C7.06712 21.6744 7.1627 22.1325 7.48069 22.3055Z"/>
<path d="M6.02032 22.7068C6.4998 22.3114 6.89028 22.8271 6.89028 22.8271L6.53272 23.1764L6.02032 22.7068Z"/>
<path fill-rule="evenodd" clip-rule="evenodd" d="M6.31761 23.3889L5.84497 22.9344L5.91278 22.8639L6.38542 23.3183L6.31761 23.3889Z"/>
<path d="M5.72046 23.0266C5.55735 23.1336 5.45355 23.2276 5.45355 23.2276L5.97914 23.8405L6.2016 23.511L5.72046 23.0266Z"/>
<path d="M14.4811 23.1931C14.6393 23.3084 14.7398 23.4072 14.7398 23.4072L14.1878 24.0004L13.9786 23.6659L14.4811 23.1931Z"/>
<path fill-rule="evenodd" clip-rule="evenodd" d="M13.8277 23.5401L13.774 23.4759L14.282 23.0507L14.3358 23.115L13.8277 23.5401Z"/>
<path d="M14.1915 22.8583C13.7301 22.453 13.3165 22.9605 13.3165 22.9605L13.6592 23.3163L14.1915 22.8583Z"/>
<path d="M13.2981 21.8344C12.667 21.4966 12.3342 21.9761 12.3342 21.9761C12.7214 22.1639 13.0246 22.594 13.0246 22.594L13.1218 22.7521L13.1103 22.7455C13.1103 22.7455 13.6046 22.2183 13.9588 22.5495L13.9638 22.5511C13.8122 22.3518 13.6804 22.1788 13.6095 22.1013C13.5453 22.0288 13.4365 21.9332 13.2981 21.8344Z"/>
<path d="M10.9459 20.8171C10.8915 20.8401 11.2803 20.9769 11.8949 20.8863L11.9015 20.8813C11.9015 20.8813 11.9823 20.7973 12.007 20.7429C12.0301 20.6869 12.0712 20.5699 12.0745 20.5057C12.0795 20.4463 12.1009 20.4101 12.1042 20.3277C12.1042 20.3277 12.1042 20.247 12.1306 20.1761C12.0597 20.2107 11.6923 20.3343 11.6923 20.3343C11.5917 20.3574 11.5242 20.3706 11.5242 20.3706C11.4698 20.4101 11.422 20.4628 11.3775 20.5057C11.3479 20.5271 11.277 20.5847 11.1979 20.6523C11.1567 20.6869 10.9706 20.7973 10.9459 20.8171Z"/>
<path d="M13.5274 21.6867C13.908 21.2549 13.7433 20.7376 13.6774 20.4888L12.926 20.8364C12.9392 20.8727 13.0513 21.0819 12.8387 21.3241C12.8387 21.3241 13.5686 21.6356 13.5274 21.6867Z"/>
<path d="M12.0667 21.8719C12.0667 21.8719 12.5692 21.4056 12.8922 21.549L12.8197 21.4847C12.5313 21.2722 12.1771 21.1404 11.8311 21.1338C11.5197 21.1239 10.9742 21.2178 10.8474 21.4172C10.8474 21.4172 11.3219 21.5127 11.6136 21.8143C11.6432 21.8357 11.7635 21.8011 12.0667 21.8719Z"/>
<path d="M4.33175 10.2106L4.63163 9.60913L5.29567 9.7179L4.81945 9.24173L5.11933 8.6436L4.52287 8.95007L4.04339 8.48212L4.15216 9.14285L3.55403 9.45425L4.22299 9.55313L4.33175 10.2106ZM8.90081 11.9934H8.88432C8.5367 12.0313 8.09675 12.0642 7.68811 12.1614C7.4904 11.392 6.93676 10.4132 5.97944 10.5483C5.16382 10.6653 4.82274 11.5073 5.01553 12.2471C3.85391 12.4119 2.87518 11.4628 2.63953 10.3935C2.29024 8.78859 3.46175 7.16724 5.15722 7.16724C7.53652 7.1755 8.82172 10.3127 8.90081 11.9934Z"/>
<path d="M16.4865 10.2132L16.5952 9.55244L17.2625 9.46016L16.6661 9.14709L16.7732 8.48144L16.2937 8.95106L15.6972 8.64622L16.0004 9.24435L15.5209 9.71722L16.1866 9.61835L16.4865 10.2132ZM11.9174 11.9927C11.9981 10.3187 13.2817 7.17482 15.6626 7.17482C17.3581 7.16823 18.5296 8.79618 18.1786 10.3928C17.9447 11.4704 16.9659 12.4112 15.796 12.2497C15.9938 11.5034 15.6527 10.6696 14.8338 10.5543C13.8864 10.4126 13.3311 11.393 13.1367 12.1525C12.7248 12.0718 12.2798 12.0306 11.9371 11.9993L11.9174 11.9927Z"/>
<path d="M10.4158 13.0716C11.9547 13.0716 13.1922 12.9283 13.1922 12.8311C13.1922 12.7372 11.9449 12.5823 10.4075 12.5823C8.86856 12.5823 7.61796 12.7372 7.61796 12.8311C7.61796 12.9283 8.87683 13.0716 10.4158 13.0716ZM10.4075 13.4176C8.62804 13.4176 7.18628 13.159 7.18628 12.8311C7.18628 12.5081 8.62804 12.2478 10.4075 12.2478C12.1854 12.2478 13.6272 12.5081 13.6272 12.8311C13.6272 13.159 12.1854 13.4176 10.4075 13.4176Z"/>
<path d="M13.0239 13.5282C12.6977 13.5958 12.3187 13.6518 11.9002 13.693L11.9018 13.6897C11.9826 14.3916 12.5692 15.9157 13.571 15.9157C14.3025 15.9157 14.876 15.2698 14.9353 14.5745C14.0735 14.9766 13.1969 14.5514 13.0157 13.5249L13.0239 13.5282Z"/>
<path d="M8.9038 13.693C8.49185 13.6551 8.11456 13.5991 7.79159 13.5365L7.78662 13.5249C7.6186 14.563 6.73707 15.0029 5.87036 14.5877C5.92637 15.2896 6.4998 15.9372 7.23303 15.9372C8.24139 15.9372 8.82963 14.3883 8.9005 13.6897L8.9038 13.693Z"/>
<path d="M10.4082 2.27722C10.8366 2.73696 11.5451 3.27573 11.6918 3.3878C12.7924 4.21164 13.3082 5.34033 13.3131 6.32896C13.3312 8.15294 11.7873 9.75948 11.5978 11.9641C11.2831 11.9229 10.9519 11.9097 10.6026 11.9064C10.6422 9.6672 10.5582 6.64203 10.4082 4.45054C10.2533 6.64203 10.1693 9.6672 10.2088 11.9064C9.86282 11.9097 9.52996 11.9229 9.2136 11.9641C9.02411 9.75948 7.48352 8.15294 7.49834 6.32896C7.5066 5.34033 8.0223 4.21164 9.11802 3.3878C9.26631 3.27573 9.97813 2.73696 10.4082 2.27722Z"/>
<path d="M10.4082 17.953C11.2651 17.5757 12.1482 16.7782 12.5256 15.9544C11.9801 15.1981 11.7033 14.3808 11.6193 13.7168C11.2997 13.7415 10.9685 13.7596 10.6224 13.7596C10.5763 14.3512 10.5763 15.61 10.4082 16.2922C10.2336 15.61 10.2352 14.3512 10.1924 13.7596C9.84638 13.7596 9.51023 13.7415 9.19554 13.7168C9.10985 14.3808 8.82976 15.1981 8.28931 15.9544C8.6666 16.7782 9.5465 17.5757 10.4082 17.953Z"/>
</g></g></g>
</symbol></svg>